<?xml version="1.0" standalone="no"?>
<!DOCTYPE svg PUBLIC "-//W3C//DTD SVG 20010904//EN"
 "http://www.w3.org/TR/2001/REC-SVG-20010904/DTD/svg10.dtd">
<svg version="1.0" xmlns="http://www.w3.org/2000/svg"
 width="512.000000pt" height="512.000000pt" viewBox="0 0 512.000000 512.000000"
 preserveAspectRatio="xMidYMid meet">
<metadata>
Created by potrace 1.10, written by Peter Selinger 2001-2011
</metadata>
<g transform="translate(0.000000,512.000000) scale(0.050000,-0.050000)"
fill="#ededed" stroke="none">
<path d="M1205 9369 c-308 -83 -534 -311 -614 -620 -46 -175 -47 -5840 -1
-6015 84 -323 337 -567 656 -633 73 -15 1051 -20 3254 -16 l3150 5 118 45
c340 129 589 418 650 754 37 203 30 4032 -8 4177 -66 254 -211 433 -445 549
l-153 75 -384 6 -384 6 -8 504 c-12 726 -128 967 -549 1137 l-117 47 -2530 4
c-2134 3 -2546 -1 -2635 -25z m4569 -1988 c189 -115 160 -405 -48 -494 -95
-40 -2916 -40 -3013 0 -209 88 -237 378 -47 494 62 38 111 39 1554 39 1443 0
1492 -1 1554 -39z m1997 -301 c114 -105 109 -17 109 -2114 0 -1195 -7 -1962
-19 -2004 -107 -372 -607 -424 -782 -81 -38 76 -39 127 -39 2170 l0 2092 338
-7 c330 -6 340 -7 393 -56z m-2019 -1092 c196 -93 196 -403 0 -496 -96 -45
-3792 -49 -3900 -4 -210 88 -213 413 -4 503 102 45 3810 41 3904 -3z m-12
-1403 c200 -101 213 -395 22 -494 -104 -54 -3847 -46 -3936 8 -191 116 -180
391 18 481 127 58 3782 62 3896 5z"/>
</g>
</svg>
