 <svg  version="1.0" xmlns="http://www.w3.org/2000/svg"  width="300.000000pt" height="299.000000pt" viewBox="0 0 300.000000 299.000000"  preserveAspectRatio="xMidYMid meet">  <g transform="translate(0.000000,299.000000) scale(0.050000,-0.050000)" fill="#edeee7" stroke="none"> <path d="M2978 4925 c-197 -261 -1838 -2571 -1838 -2587 0 -10 2 -20 5 -22 3 -3 291 -9 642 -15 l636 -11 -477 -670 c-611 -857 -654 -919 -644 -928 9 -10 717 -17 1340 -14 l432 2 110 155 c317 445 1614 2282 1643 2327 50 78 49 78 -610 78 -339 0 -617 5 -617 11 0 7 275 402 610 879 336 478 610 878 610 889 0 14 -283 21 -878 21 l-877 0 -87 -115z"/> </g> </svg> 